<svg width="280" height="280" viewBox="0 0 280 280" fill="none" xmlns="http://www.w3.org/2000/svg">
<mask id="mask0_125_37" style="mask-type:alpha" maskUnits="userSpaceOnUse" x="0" y="0" width="280" height="280">
<rect width="280" height="280" fill="#D9D9D9"/>
</mask>
<g mask="url(#mask0_125_37)">
<path d="M29.1665 156.199C29.1665 154.988 29.2453 153.777 29.4028 152.565C29.5603 151.354 29.8334 150.202 30.2223 149.109L52.9928 84.5837C53.8619 81.9062 55.4554 79.7789 57.7732 78.202C60.0909 76.6231 62.6712 75.8337 65.514 75.8337H109.083C111.562 75.8337 113.641 76.6727 115.319 78.3507C116.995 80.0288 117.833 82.1074 117.833 84.5866C117.833 87.0677 116.995 89.1453 115.319 90.8195C113.641 92.4956 111.562 93.3337 109.083 93.3337H68.4744L53.7569 135.065H142.916C145.396 135.065 147.474 135.904 149.152 137.582C150.828 139.26 151.666 141.339 151.666 143.818C151.666 146.299 150.828 148.377 149.152 150.051C147.474 151.727 145.396 152.565 142.916 152.565H46.6665V210H210V168.537C210 166.058 210.839 163.98 212.517 162.304C214.195 160.628 216.274 159.79 218.753 159.79C221.234 159.79 223.311 160.628 224.986 162.304C226.662 163.98 227.5 166.058 227.5 168.537V238.493C227.5 241.921 226.299 244.835 223.898 247.235C221.494 249.634 218.578 250.834 215.148 250.834C211.716 250.834 208.803 249.634 206.409 247.235C204.018 244.835 202.822 241.921 202.822 238.493V227.5H53.8444V238.493C53.8444 241.921 52.6437 244.835 50.2423 247.235C47.8409 249.634 44.9243 250.834 41.4923 250.834C38.0623 250.834 35.1505 249.634 32.7569 247.235C30.3633 244.835 29.1665 241.921 29.1665 238.493V156.199ZM181.309 196.54C185.553 196.54 189.152 195.053 192.106 192.08C195.062 189.109 196.539 185.501 196.539 181.257C196.539 177.012 195.053 173.412 192.08 170.456C189.109 167.503 185.501 166.026 181.256 166.026C177.011 166.026 173.411 167.511 170.456 170.482C167.502 173.455 166.025 177.064 166.025 181.309C166.025 185.554 167.511 189.153 170.482 192.107C173.455 195.062 177.064 196.54 181.309 196.54ZM75.4102 196.54C79.655 196.54 83.2551 195.053 86.2107 192.08C89.1643 189.109 90.6411 185.501 90.6411 181.257C90.6411 177.012 89.1555 173.412 86.1844 170.456C83.2114 167.503 79.6025 166.026 75.3578 166.026C71.113 166.026 67.5139 167.511 64.5603 170.482C61.6047 173.455 60.1269 177.064 60.1269 181.309C60.1269 185.554 61.6134 189.153 64.5865 192.107C67.5576 195.062 71.1655 196.54 75.4102 196.54ZM196.044 134.167C181.505 134.167 169.129 129.059 158.914 118.843C148.698 108.627 143.59 96.2212 143.59 81.6262C143.59 67.2042 148.669 54.856 158.827 44.5816C168.987 34.3052 181.422 29.167 196.134 29.167C210.673 29.167 223.05 34.275 233.266 44.4912C243.482 54.7073 248.59 67.0992 248.59 81.667C248.59 96.2348 243.467 108.627 233.219 118.843C222.972 129.059 210.58 134.167 196.044 134.167ZM196.09 91.0907C197.465 91.0907 198.669 90.5745 199.701 89.542C200.734 88.5095 201.25 87.3049 201.25 85.9282V55.417C201.25 54.0403 200.734 52.8367 199.701 51.8062C198.669 50.7737 197.465 50.2574 196.09 50.2574C194.714 50.2574 193.509 50.7737 192.476 51.8062C191.444 52.8367 190.928 54.0403 190.928 55.417V85.9282C190.928 87.3049 191.444 88.5095 192.476 89.542C193.509 90.5745 194.714 91.0907 196.09 91.0907ZM196.09 113.526C197.646 113.526 198.951 112.979 200.004 111.887C201.058 110.796 201.623 109.509 201.699 108.028C201.699 106.503 201.153 105.169 200.06 104.023C198.969 102.88 197.646 102.308 196.09 102.308C194.535 102.308 193.211 102.854 192.118 103.944C191.027 105.037 190.482 106.361 190.482 107.917C190.482 109.473 191.027 110.796 192.118 111.887C193.211 112.979 194.535 113.526 196.09 113.526Z" fill="#282650"/>
</g>
</svg>
