<svg width="280" height="280" viewBox="0 0 280 280" fill="none" xmlns="http://www.w3.org/2000/svg">
<mask id="mask0_125_43" style="mask-type:alpha" maskUnits="userSpaceOnUse" x="0" y="0" width="280" height="280">
<rect width="280" height="280" fill="#D9D9D9"/>
</mask>
<g mask="url(#mask0_125_43)">
<path d="M67.0835 189.584V119.584C67.0835 117.105 67.9226 115.026 69.6006 113.348C71.2787 111.672 73.3573 110.834 75.8364 110.834C78.3176 110.834 80.3962 111.672 82.0723 113.348C83.7464 115.026 84.5835 117.105 84.5835 119.584V189.584C84.5835 192.063 83.7445 194.141 82.0664 195.82C80.3884 197.496 78.3098 198.334 75.8306 198.334C73.3495 198.334 71.2719 197.496 69.5977 195.82C67.9216 194.141 67.0835 192.063 67.0835 189.584ZM131.25 189.584V119.584C131.25 117.105 132.089 115.026 133.767 113.348C135.445 111.672 137.524 110.834 140.003 110.834C142.484 110.834 144.562 111.672 146.236 113.348C147.912 115.026 148.75 117.105 148.75 119.584V189.584C148.75 192.063 147.911 194.141 146.233 195.82C144.555 197.496 142.476 198.334 139.997 198.334C137.516 198.334 135.439 197.496 133.764 195.82C132.088 194.141 131.25 192.063 131.25 189.584ZM239.391 87.5003H39.7806C37.7039 87.5003 35.9394 86.7751 34.4869 85.3245C33.0344 83.8759 32.3081 82.1152 32.3081 80.0424V75.4866C32.3081 73.968 32.6882 72.6584 33.4485 71.5579C34.2107 70.4592 35.2141 69.5658 36.4585 68.8774L130.734 22.7503C133.647 21.3445 136.731 20.6416 139.986 20.6416C143.241 20.6416 146.334 21.3445 149.266 22.7503L243.069 68.5858C244.535 69.3344 245.672 70.3815 246.479 71.727C247.288 73.0745 247.692 74.5212 247.692 76.067V79.2287C247.692 81.6165 246.911 83.592 245.347 85.1554C243.784 86.7187 241.799 87.5003 239.391 87.5003ZM73.8589 70.0003H206.141L141.572 38.5908C141.047 38.3652 140.523 38.2524 140 38.2524C139.477 38.2524 138.953 38.3652 138.428 38.5908L73.8589 70.0003ZM41.0581 239.167C38.5789 239.167 36.5013 238.328 34.8252 236.65C33.1471 234.972 32.3081 232.893 32.3081 230.414C32.3081 227.933 33.1471 225.855 34.8252 224.181C36.5013 222.505 38.5789 221.667 41.0581 221.667H158.644C161.123 221.667 163.201 222.506 164.879 224.184C166.555 225.862 167.394 227.941 167.394 230.42C167.394 232.901 166.555 234.979 164.879 236.653C163.201 238.329 161.123 239.167 158.644 239.167H41.0581ZM204.164 156.156C201.683 156.156 199.604 155.317 197.928 153.639C196.254 151.963 195.417 149.885 195.417 147.406V119.584C195.417 117.105 196.256 115.026 197.934 113.348C199.612 111.672 201.691 110.834 204.17 110.834C206.651 110.834 208.729 111.672 210.403 113.348C212.079 115.026 212.917 117.105 212.917 119.584V147.406C212.917 149.885 212.078 151.963 210.4 153.639C208.722 155.317 206.643 156.156 204.164 156.156ZM190.257 216.846V195.977C190.257 194.052 190.754 192.214 191.748 190.462C192.743 188.71 194.199 187.385 196.114 186.489L228.644 170.223C230.028 169.4 231.586 168.989 233.319 168.989C235.049 168.989 236.618 169.4 238.024 170.223L270.553 186.489C272.468 187.385 273.924 188.71 274.919 190.462C275.913 192.214 276.41 194.052 276.41 195.977V216.846C276.41 230.395 272.899 242.019 265.878 251.72C258.854 261.419 249.301 268.811 237.219 273.896C236.857 274.077 235.562 274.361 233.334 274.75C232.871 274.75 231.562 274.459 229.408 273.875C217.352 268.804 207.813 261.419 200.789 251.72C193.768 242.019 190.257 230.395 190.257 216.846ZM224.875 222.79L218.391 216.306C217.015 214.93 215.403 214.252 213.556 214.273C211.708 214.297 210.059 215.034 208.609 216.484C207.158 217.935 206.433 219.565 206.433 221.375C206.433 223.186 207.158 224.816 208.609 226.267L217.493 235.151C219.603 237.26 222.064 238.315 224.875 238.315C227.687 238.315 230.148 237.26 232.257 235.151L257.944 209.642C259.321 208.265 260.028 206.653 260.065 204.806C260.104 202.959 259.397 201.31 257.944 199.859C256.494 198.409 254.864 197.713 253.056 197.774C251.246 197.834 249.615 198.529 248.165 199.859L224.875 222.79Z" fill="#282650"/>
</g>
</svg>
