<svg width="280" height="280" viewBox="0 0 280 280" fill="none" xmlns="http://www.w3.org/2000/svg">
<mask id="mask0_125_25" style="mask-type:alpha" maskUnits="userSpaceOnUse" x="0" y="0" width="280" height="280">
<rect width="280" height="280" fill="#D9D9D9"/>
</mask>
<g mask="url(#mask0_125_25)">
<path d="M141.75 190.66C148.39 190.66 154.351 189.003 159.632 185.69C164.911 182.378 167.551 177.065 167.551 169.75C167.551 163.662 165.282 158.813 160.743 155.202C156.203 151.589 147.733 147.508 135.333 142.96C123.338 138.653 114.685 133.83 109.375 128.491C104.065 123.151 101.41 116.099 101.41 107.333C101.41 99.8103 104.125 92.9221 109.556 86.6688C114.985 80.4174 122.575 76.4313 132.326 74.7104V68.5417C132.326 66.4183 133.123 64.5604 134.718 62.9679C136.31 61.3735 138.168 60.5763 140.292 60.5763C142.415 60.5763 144.273 61.3735 145.865 62.9679C147.46 64.5604 148.257 66.4183 148.257 68.5417V74.7104C153.746 75.0993 158.854 76.8833 163.581 80.0625C168.306 83.2417 172.165 87.1869 175.157 91.8983C176.219 93.5122 176.316 95.236 175.449 97.0696C174.582 98.9013 173.124 100.191 171.074 100.94C169.145 101.687 167.197 101.784 165.229 101.232C163.263 100.678 161.651 99.5556 160.393 97.8658C158.151 95.1572 155.403 92.962 152.148 91.28C148.895 89.5981 145.04 88.7571 140.583 88.7571C133.329 88.7571 127.641 90.4769 123.521 93.9167C119.4 97.3564 117.34 101.829 117.34 107.333C117.34 112.838 119.352 117.124 123.375 120.19C127.398 123.256 135.542 126.884 147.808 131.072C161.808 136.128 171.216 141.796 176.032 148.076C180.849 154.359 183.257 161.583 183.257 169.75C183.257 175.315 182.228 180.198 180.171 184.4C178.114 188.604 175.426 192.138 172.107 195.002C168.785 197.867 165.005 200.129 160.764 201.79C156.523 203.448 152.16 204.615 147.674 205.29V211.458C147.674 213.582 146.876 215.44 145.282 217.032C143.69 218.627 141.832 219.424 139.708 219.424C137.585 219.424 135.727 218.627 134.135 217.032C132.54 215.44 131.743 213.582 131.743 211.458V204.706C124.58 203.151 118.373 200.364 113.123 196.347C107.873 192.332 103.617 187.093 100.357 180.632C99.4135 178.583 99.4058 176.556 100.333 174.551C101.261 172.546 102.749 171.17 104.799 170.424C106.728 169.675 108.694 169.686 110.699 170.456C112.704 171.228 114.237 172.518 115.299 174.326C118.32 179.681 122.108 183.742 126.662 186.509C131.216 189.276 136.245 190.66 141.75 190.66ZM140 262.5C117.25 262.5 96.6048 256.868 78.0645 245.604C59.5262 234.342 44.9847 219.25 34.4399 200.328V226.377C34.4399 228.86 33.6019 230.94 31.9258 232.616C30.2516 234.29 28.173 235.127 25.6899 235.127C23.2069 235.127 21.1273 234.29 19.4512 232.616C17.777 230.94 16.9399 228.86 16.9399 226.377V181.507C16.9399 178.499 17.9452 175.99 19.9558 173.979C21.9683 171.967 24.4776 170.96 27.4837 170.96H72.3566C74.8397 170.96 76.9183 171.798 78.5924 173.475C80.2685 175.149 81.1066 177.227 81.1066 179.71C81.1066 182.193 80.2685 184.273 78.5924 185.949C76.9183 187.623 74.8397 188.46 72.3566 188.46H47.9674C56.4024 205.453 68.8692 219.124 85.3679 229.475C101.866 239.825 120.077 245 140 245C167.117 245 190.525 236.048 210.225 218.143C229.924 200.241 241.284 177.895 244.306 151.107C244.619 148.668 245.643 146.694 247.377 145.183C249.113 143.672 251.2 142.917 253.636 142.917C256.119 142.917 258.21 143.751 259.907 145.419C261.605 147.086 262.297 149.079 261.984 151.398C260.547 167.028 256.381 181.577 249.486 195.046C242.591 208.515 233.688 220.249 222.778 230.248C211.866 240.246 199.346 248.121 185.22 253.873C171.092 259.624 156.018 262.5 140 262.5ZM140 35C113.332 35 90.0549 43.821 70.1691 61.4629C50.2833 79.1049 38.7916 101.545 35.6941 128.783C35.3811 131.221 34.3573 133.214 32.6229 134.762C30.8865 136.309 28.8001 137.083 26.3637 137.083C23.8048 137.083 21.6951 136.249 20.0345 134.581C18.3759 132.914 17.7031 130.884 18.0162 128.491C19.6009 112.562 23.8972 97.8435 30.9049 84.3354C37.9127 70.8293 46.8727 59.1335 57.7849 49.2479C68.6952 39.3604 81.1766 31.5972 95.2291 25.9583C109.282 20.3194 124.205 17.5 140 17.5C162.526 17.5 183.171 23.1506 201.935 34.4517C220.699 45.7508 235.241 60.9739 245.56 80.1208V53.6229C245.56 51.1399 246.398 49.0603 248.074 47.3842C249.748 45.71 251.827 44.8729 254.31 44.8729C256.793 44.8729 258.873 45.71 260.549 47.3842C262.223 49.0603 263.06 51.1399 263.06 53.6229V98.4929C263.06 101.501 262.055 104.01 260.044 106.021C258.032 108.033 255.522 109.04 252.516 109.04H207.643C205.16 109.04 203.082 108.202 201.407 106.525C199.731 104.851 198.893 102.773 198.893 100.29C198.893 97.8065 199.731 95.727 201.407 94.0508C203.082 92.3767 205.16 91.5396 207.643 91.5396H232.032C223.821 74.8465 211.448 61.25 194.912 50.75C178.376 40.25 160.072 35 140 35Z" fill="#282650"/>
</g>
</svg>
