<svg width="141" height="141" viewBox="0 0 141 141" fill="none" xmlns="http://www.w3.org/2000/svg">
  <rect x="0.541016" y="0.880127" width="140" height="140" rx="70" fill="#282650" />
  <path
    d="M38.6631 55.0468H54.496V70.8806C54.496 75.0799 52.8279 79.1073 49.8587 82.0767C46.8894 85.0461 42.8622 86.7143 38.6631 86.7143C34.4639 86.7143 30.4367 85.0461 27.4674 82.0767C24.4982 79.1073 22.8301 75.0799 22.8301 70.8806C22.8301 66.6812 24.4982 62.6538 27.4674 59.6844C30.4367 56.715 34.4639 55.0468 38.6631 55.0468Z"
    fill="#A4F625"
  />
  <path
    d="M70.3261 86.7136C67.1948 86.7137 64.1338 87.6424 61.5303 89.3822C58.9267 91.122 56.8975 93.5948 55.6992 96.4879C54.501 99.3811 54.1875 102.565 54.7984 105.636C55.4093 108.707 56.9172 111.528 59.1314 113.743C61.3456 115.957 64.1666 117.465 67.2377 118.076C70.3089 118.687 73.4922 118.373 76.3852 117.175C79.2782 115.977 81.7509 113.947 83.4907 111.344C85.2304 108.74 86.159 105.679 86.1591 102.547V86.7136H70.3261Z"
    fill="#A4F625"
  />
  <path
    d="M70.3266 23.3801C74.5258 23.3801 78.553 25.0483 81.5222 28.0177C84.4915 30.9871 86.1596 35.0145 86.1596 39.2139V55.0476H54.4941V39.2139C54.4941 35.0146 56.1622 30.9873 59.1313 28.0179C62.1005 25.0485 66.1275 23.3803 70.3266 23.3801Z"
    fill="#A4F625"
  />
  <path d="M86.165 55.0468H117.831C117.831 72.5354 103.654 86.7143 86.165 86.7143V55.0468Z" fill="#A4F625" />
</svg>

